<svg xmlns="http://www.w3.org/2000/svg" viewBox="0 0 360 420" width="360" height="420" role="img" aria-labelledby="sl-title">
  <title id="sl-title">Corvus Stacked Lockup</title>
  
  <g id="symbol" transform="translate(52, 24) scale(1.0)">
    <path fill="#FFFFFF" fill-rule="evenodd" d="M 128 20
    L 196 59.27
    L 246 88.13
    L 174 116
    L 164 98.68
    L 128 77.9
    L 76 107.92
    L 76 148.08
    L 128 178.1
    L 164 157.32
    L 198 176.95
    L 128 217.4
    L 34 163.14
    L 34 74.86 Z
    M 148 62
    L 168 73.55
    L 148 82 Z"/>
  </g>
  <g id="wordmark">
    <g fill="#FFFFFF" transform="translate(-145, 200) scale(0.74)">
  <!-- C -->
  <path fill-rule="evenodd" d="
    M 346 96 L 346 80 C 304 80 280 102 280 128 C 280 154 304 176 346 176 L 346 160 C 314 160 298 144 298 128 C 298 112 314 96 346 96 Z
  "/>
  <!-- O -->
  <path fill-rule="evenodd" d="
    M 405 80 C 370 80 370 176 405 176 C 440 176 440 80 405 80 Z M 405 97 C 422 97 422 159 405 159 C 388 159 388 97 405 97 Z
  "/>
  <!-- R -->
  <path fill-rule="evenodd" d="
    M 460 80 L 508 80 C 526 80 532 90 532 105 C 532 118 524 128 506 130 L 532 176 L 512 176 L 488 132 L 478 132 L 478 176 L 460 176 Z M 478 96 L 506 96 C 514 96 516 100 516 106 C 516 112 514 116 506 116 L 478 116 Z
  "/>
  <!-- V -->
  <path d="
    M 550 80 L 568 80 L 587 154 L 606 80 L 624 80 L 597 176 L 577 176 Z
  "/>
  <!-- U -->
  <path fill-rule="evenodd" d="
    M 644 80 L 662 80 L 662 144 C 662 156 670 160 679 160 C 688 160 696 156 696 144 L 696 80 L 714 80 L 714 144 C 714 168 698 176 679 176 C 660 176 644 168 644 144 Z
  "/>
  <!-- S -->
  <path d="
    M 788 98 L 772 103 C 772 98 766 94 758 94 C 750 94 746 98 746 103 C 746 122 790 114 790 150 C 790 168 776 177 758 177 C 738 177 728 164 728 152 L 744 147 C 744 154 750 161 758 161 C 766 161 772 156 772 150 C 772 132 728 138 728 103 C 728 89 742 80 758 80 C 774 80 788 88 788 98 Z
  "/>
</g>
  </g>
</svg>